<?xml version="1.0" encoding="UTF-8" standalone="no"?>
<svg
   enable-background="new 0 0 64 64"
   viewBox="0 0 64 64"
   version="1.1"
   id="svg34"
   sodipodi:docname="secured-profile.svg"
   inkscape:version="1.2.1 (9c6d41e410, 2022-07-14)"
   width="64"
   height="64"
   xmlns:inkscape="http://www.inkscape.org/namespaces/inkscape"
   xmlns:sodipodi="http://sodipodi.sourceforge.net/DTD/sodipodi-0.dtd"
   xmlns="http://www.w3.org/2000/svg"
   xmlns:svg="http://www.w3.org/2000/svg">
  <defs
     id="defs38" />
  <sodipodi:namedview
     id="namedview36"
     pagecolor="#ffffff"
     bordercolor="#000000"
     borderopacity="0.25"
     inkscape:showpageshadow="2"
     inkscape:pageopacity="0.0"
     inkscape:pagecheckerboard="0"
     inkscape:deskcolor="#d1d1d1"
     showgrid="false"
     inkscape:zoom="5.1928154"
     inkscape:cx="13.961598"
     inkscape:cy="27.345474"
     inkscape:window-width="1366"
     inkscape:window-height="699"
     inkscape:window-x="0"
     inkscape:window-y="0"
     inkscape:window-maximized="1"
     inkscape:current-layer="svg34" />
  <line
     x1="58.5"
     x2="58.5"
     y1="36.200001"
     y2="12.7"
     fill="none"
     stroke="#010101"
     stroke-linecap="round"
     stroke-linejoin="round"
     stroke-miterlimit="10"
     stroke-width="2"
     id="line2"
     style="stroke:#6f9695;stroke-opacity:1" />
  <path
     fill="none"
     stroke="#010101"
     stroke-linecap="round"
     stroke-linejoin="round"
     stroke-miterlimit="10"
     stroke-width="2"
     d="m 1,12.7 v 39.9 c 0,2.6 2.1,4.7 4.7,4.7 H 41.8 M 58.5,12.7 H 1 V 5.4 C 1,3 3,1 5.4,1 h 48.7 c 2.4,0 4.4,2 4.4,4.4 0,0 0,7.3 0,7.3 z"
     id="path4"
     style="stroke:#6f9695;stroke-opacity:1" />
  <ellipse
     cx="7.9000001"
     cy="6.9000001"
     fill="none"
     stroke="#010101"
     stroke-linecap="round"
     stroke-linejoin="round"
     stroke-miterlimit="10"
     stroke-width="2"
     rx="2.4000001"
     ry="2.3"
     id="ellipse6"
     style="stroke:#6f9695;stroke-opacity:1" />
  <ellipse
     cx="15.1"
     cy="6.9000001"
     fill="none"
     stroke="#010101"
     stroke-linecap="round"
     stroke-linejoin="round"
     stroke-miterlimit="10"
     stroke-width="2"
     rx="2.4000001"
     ry="2.3"
     id="ellipse8"
     style="stroke:#6f9695;stroke-opacity:1" />
  <ellipse
     cx="22.299999"
     cy="6.9000001"
     fill="none"
     stroke="#010101"
     stroke-linecap="round"
     stroke-linejoin="round"
     stroke-miterlimit="10"
     stroke-width="2"
     rx="2.4000001"
     ry="2.3"
     id="ellipse10"
     style="stroke:#6f9695;stroke-opacity:1" />
  <path
     fill="none"
     stroke="#010101"
     stroke-linecap="round"
     stroke-linejoin="round"
     stroke-miterlimit="10"
     stroke-width="2"
     d="M 52.3,8.4 H 32.1 c -0.9,0 -1.6,-0.7 -1.6,-1.6 v 0 c 0,-0.9 0.7,-1.6 1.6,-1.6 h 20.2 c 0.9,0 1.6,0.7 1.6,1.6 v 0 c 0,0.9 -0.7,1.6 -1.6,1.6 z M 26,27.9 c 0,2.7 -1.1,5.1 -3,6.8 -1.7,1.6 -3.9,2.5 -6.4,2.5 -2.5,0 -4.7,-1 -6.4,-2.5 -1.8,-1.7 -3,-4.1 -3,-6.8 0,-5.2 4.2,-9.4 9.4,-9.4 5.2,0 9.4,4.2 9.4,9.4 z"
     id="path12"
     style="stroke:#6f9695;stroke-opacity:1" />
  <circle
     cx="16.6"
     cy="25.200001"
     r="2.9000001"
     fill="none"
     stroke="#010101"
     stroke-linecap="round"
     stroke-linejoin="round"
     stroke-miterlimit="10"
     stroke-width="2"
     id="circle14"
     style="stroke:#6f9695;stroke-opacity:1" />
  <path
     fill="none"
     stroke="#010101"
     stroke-linecap="round"
     stroke-linejoin="round"
     stroke-miterlimit="10"
     stroke-width="2"
     d="m 10.2,34.7 c 1,-2.6 3.5,-4.4 6.4,-4.4 2.9,0 5.4,1.8 6.4,4.4"
     id="path16"
     style="stroke:#6f9695;stroke-opacity:1" />
  <line
     x1="34.900002"
     x2="6.4000001"
     y1="51.5"
     y2="51.5"
     fill="none"
     stroke="#010101"
     stroke-linecap="round"
     stroke-linejoin="round"
     stroke-miterlimit="10"
     stroke-width="2"
     id="line18"
     style="stroke:#6f9695;stroke-opacity:1" />
  <line
     x1="33.299999"
     x2="6.4000001"
     y1="43.400002"
     y2="43.400002"
     fill="none"
     stroke="#010101"
     stroke-linecap="round"
     stroke-linejoin="round"
     stroke-miterlimit="10"
     stroke-width="2"
     id="line20"
     style="stroke:#6f9695;stroke-opacity:1" />
  <line
     x1="34.400002"
     x2="31.5"
     y1="35.299999"
     y2="35.299999"
     fill="none"
     stroke="#010101"
     stroke-linecap="round"
     stroke-linejoin="round"
     stroke-miterlimit="10"
     stroke-width="2"
     id="line22"
     style="stroke:#6f9695;stroke-opacity:1" />
  <line
     x1="48.799999"
     x2="31.5"
     y1="27.299999"
     y2="27.299999"
     fill="none"
     stroke="#010101"
     stroke-linecap="round"
     stroke-linejoin="round"
     stroke-miterlimit="10"
     stroke-width="2"
     id="line24"
     style="stroke:#6f9695;stroke-opacity:1" />
  <line
     x1="31.6"
     x2="53.099998"
     y1="19.200001"
     y2="19.200001"
     fill="none"
     stroke="#010101"
     stroke-linecap="round"
     stroke-linejoin="round"
     stroke-miterlimit="10"
     stroke-width="2"
     id="line26"
     style="stroke:#6f9695;stroke-opacity:1" />
  <path
     fill="none"
     stroke="#010101"
     stroke-linecap="round"
     stroke-linejoin="round"
     stroke-miterlimit="10"
     stroke-width="2"
     d="m 61.7,37.2 c 0.7,0.2 1.3,0.8 1.3,1.6 v 1.8 c 0,4.6 -1,9.2 -3.1,13.4 -2.2,4.3 -5.2,7.4 -9.2,8.9 -0.4,0.1 -0.8,0.1 -1.1,0 -4,-1.5 -7,-4.6 -9.2,-8.9 -2.1,-4.1 -3.1,-8.7 -3.1,-13.4 v -1.8 c 0,-0.8 0.5,-1.4 1.3,-1.6 4.6,-1 8,-2.9 10.4,-5.6 0.6,-0.7 1.8,-0.7 2.4,0 2.3,2.7 5.7,4.6 10.3,5.6 z"
     id="path28"
     style="stroke:#6f9695;stroke-opacity:1" />
  <path
     fill="none"
     stroke="#010101"
     stroke-linecap="round"
     stroke-linejoin="round"
     stroke-miterlimit="10"
     stroke-width="2"
     d="M 50.1,59.4 C 47.4,58.2 45.2,55.9 43.4,52.4 41.6,49 40.7,44.9 40.7,40.6 v -0.4 c 3.8,-1 7,-2.6 9.5,-4.9 2.5,2.3 5.7,3.9 9.5,4.9 v 0.4 c 0,4.3 -0.9,8.3 -2.7,11.8 -2,3.5 -4.2,5.8 -6.9,7 z"
     id="path30"
     style="stroke:#6f9695;stroke-opacity:1" />
  <path
     fill="none"
     stroke="#010101"
     stroke-linecap="round"
     stroke-linejoin="round"
     stroke-miterlimit="10"
     stroke-width="2"
     d="m 51.8,48.3 0.5,2.1 c 0.1,0.4 -0.2,0.8 -0.7,0.8 h -3 c -0.4,0 -0.8,-0.4 -0.7,-0.8 l 0.5,-2.2 c 0,-0.2 0,-0.5 -0.2,-0.6 -0.7,-0.6 -1.1,-1.5 -0.9,-2.5 0.2,-1.2 1.2,-2.2 2.4,-2.3 1.7,-0.2 3.2,1.1 3.2,2.8 0,0.8 -0.4,1.6 -0.9,2.1 -0.2,0.2 -0.3,0.4 -0.2,0.6 z"
     id="path32"
     style="stroke:#6f9695;stroke-opacity:1" />
</svg>
