<?xml version="1.0" encoding="UTF-8" standalone="no"?>
<svg
   data-name="Layer 2"
   viewBox="0 0 64 64"
   version="1.1"
   id="svg10"
   sodipodi:docname="support.svg"
   inkscape:version="1.2.1 (9c6d41e410, 2022-07-14)"
   width="64"
   height="64"
   xmlns:inkscape="http://www.inkscape.org/namespaces/inkscape"
   xmlns:sodipodi="http://sodipodi.sourceforge.net/DTD/sodipodi-0.dtd"
   xmlns="http://www.w3.org/2000/svg"
   xmlns:svg="http://www.w3.org/2000/svg">
  <defs
     id="defs14" />
  <sodipodi:namedview
     id="namedview12"
     pagecolor="#ffffff"
     bordercolor="#000000"
     borderopacity="0.25"
     inkscape:showpageshadow="2"
     inkscape:pageopacity="0.0"
     inkscape:pagecheckerboard="0"
     inkscape:deskcolor="#d1d1d1"
     showgrid="false"
     inkscape:zoom="4.747717"
     inkscape:cx="10.742005"
     inkscape:cy="40.229862"
     inkscape:window-width="1366"
     inkscape:window-height="699"
     inkscape:window-x="0"
     inkscape:window-y="0"
     inkscape:window-maximized="1"
     inkscape:current-layer="svg10" />
  <path
     d="m 51.811963,30.45831 a 2.2048407,2.2048407 0 0 1 -2.20484,-2.204841 v -6.22647 c 0,-8.819362 -8.149091,-15.874853 -18.167887,-15.874853 -10.018796,0 -18.167887,7.143684 -18.167887,15.874853 v 6.22647 a 2.2048407,2.2048407 0 0 1 -4.4096814,0 v -6.22647 c 0,-11.218229 10.1422674,-20.3550892 22.5775684,-20.3550892 12.435301,0 22.577568,9.1368602 22.577568,20.3550892 v 6.22647 a 2.1872019,2.1872019 0 0 1 -2.204841,2.204841 z"
     id="path2"
     style="fill:#a343ae;fill-opacity:1;stroke:#a343ae;stroke-width:1.76387;stroke-opacity:1" />
  <path
     d="M 45.850074,51.201451 A 2.2048407,2.2048407 0 0 1 43.645234,48.99661 V 28.059443 a 2.2048407,2.2048407 0 0 1 2.20484,-2.134286 c 7.602291,0 13.793483,5.697309 13.793483,12.682244 0,6.984935 -6.191192,12.59405 -13.793483,12.59405 z m 2.204841,-20.707864 v 16.068879 a 8.5724205,8.5724205 0 0 0 7.161322,-8.02562 8.5724205,8.5724205 0 0 0 -7.161322,-8.043259 z M 16.957842,51.201451 c -7.6022899,0 -13.7934826,-5.67967 -13.7934826,-12.664605 0,-6.984935 6.1911927,-12.611689 13.7934826,-12.611689 a 2.2048407,2.2048407 0 0 1 2.204841,2.204841 V 48.99661 a 2.2048407,2.2048407 0 0 1 -2.204841,2.204841 z m -2.20484,-20.707864 a 8.5724205,8.5724205 0 0 0 -7.1613226,8.043259 8.5724205,8.5724205 0 0 0 7.1613226,8.02562 z"
     id="path4"
     style="fill:#a343ae;fill-opacity:1;stroke:#a343ae;stroke-width:1.76387;stroke-opacity:1" />
  <path
     d="m 45.126887,58.380412 h -7.302433 a 2.2048407,2.2048407 0 0 1 0,-4.409681 h 7.302433 a 4.303849,4.303849 0 0 0 4.303849,-4.303849 v -0.97013 a 2.2048407,2.2048407 0 1 1 4.409681,0 v 0.97013 a 8.7135303,8.7135303 0 0 1 -8.71353,8.71353 z"
     id="path6"
     style="fill:#a343ae;fill-opacity:1;stroke:#a343ae;stroke-width:1.76387;stroke-opacity:1" />
  <path
     d="m 34.049767,62.525512 h -4.356765 a 6.032444,6.032444 0 0 1 -6.032444,-6.032444 v -0.246942 a 6.032444,6.032444 0 0 1 6.032444,-6.014805 h 4.356765 a 6.0148053,6.0148053 0 0 1 6.014805,6.014805 v 0.246942 a 6.032444,6.032444 0 0 1 -6.014805,6.032444 z m -4.321488,-7.88451 a 1.6227627,1.6227627 0 0 0 -1.622762,1.605124 v 0.246942 a 1.6227627,1.6227627 0 0 0 1.622762,1.622763 h 4.321488 a 1.6227627,1.6227627 0 0 0 1.605124,-1.622763 v -0.246942 a 1.605124,1.605124 0 0 0 -1.605124,-1.605124 z"
     id="path8"
     style="fill:#a343ae;fill-opacity:1;stroke:#a343ae;stroke-width:1.76387;stroke-opacity:1" />
</svg>
