<?xml version="1.0" encoding="UTF-8" standalone="no"?>
<svg
   viewBox="0 0 64 64"
   version="1.1"
   id="svg8"
   sodipodi:docname="web-developing.svg"
   width="64"
   height="64"
   inkscape:version="1.2.1 (9c6d41e410, 2022-07-14)"
   xmlns:inkscape="http://www.inkscape.org/namespaces/inkscape"
   xmlns:sodipodi="http://sodipodi.sourceforge.net/DTD/sodipodi-0.dtd"
   xmlns="http://www.w3.org/2000/svg"
   xmlns:svg="http://www.w3.org/2000/svg">
  <defs
     id="defs12" />
  <sodipodi:namedview
     id="namedview10"
     pagecolor="#ffffff"
     bordercolor="#000000"
     borderopacity="0.25"
     inkscape:showpageshadow="2"
     inkscape:pageopacity="0.0"
     inkscape:pagecheckerboard="0"
     inkscape:deskcolor="#d1d1d1"
     showgrid="false"
     inkscape:zoom="7.34375"
     inkscape:cx="32"
     inkscape:cy="32"
     inkscape:window-width="1366"
     inkscape:window-height="699"
     inkscape:window-x="0"
     inkscape:window-y="0"
     inkscape:window-maximized="1"
     inkscape:current-layer="svg8" />
  <path
     d="M 58,5 H 6 a 6,6 0 0 0 -6,6 v 42 a 6,6 0 0 0 6,6 h 52 a 6,6 0 0 0 6,-6 V 11 A 6,6 0 0 0 58,5 Z m -4,6 h 4 v 4 h -4 z m -6,0 h 4 v 4 h -4 z m -6,0 h 4 v 4 h -4 z m 18,42 a 2,2 0 0 1 -2,2 H 6 A 2,2 0 0 1 4,53 V 21 h 56 z"
     id="path2"
     style="fill:#c78b8b;fill-opacity:1" />
  <path
     d="m 22.74,25.47 -11.2,11.2 A 2,2 0 0 0 11,38.08 2,2 0 0 0 11.58,39.5 l 11.2,11.19 2.83,-2.82 -9.79,-9.79 9.79,-9.78 z m 18.52,0 -2.83,2.83 9.79,9.78 -9.79,9.79 2.83,2.82 11.2,-11.19 A 2,2 0 0 0 53,38.08 2,2 0 0 0 52.42,36.67 Z"
     id="path4"
     style="fill:#c78b8b;fill-opacity:1" />
  <rect
     width="25.5"
     height="4"
     x="-44.228554"
     y="36.927483"
     transform="rotate(-78.69)"
     id="rect6"
     style="fill:#c78b8b;fill-opacity:1" />
</svg>
